<!DOCTYPE svg PUBLIC "-//W3C//DTD SVG 1.1//EN" "http://www.w3.org/Graphics/SVG/1.1/DTD/svg11.dtd">
<!-- Uploaded to: SVG Repo, www.svgrepo.com, Transformed by: SVG Repo Mixer Tools -->
<svg version="1.1" id="Layer_1" xmlns="http://www.w3.org/2000/svg" xmlns:xlink="http://www.w3.org/1999/xlink" viewBox="0 0 512 512" xml:space="preserve" width="800px" height="800px" fill="#000000">
<g id="SVGRepo_bgCarrier" stroke-width="0"/>
<g id="SVGRepo_tracerCarrier" stroke-linecap="round" stroke-linejoin="round"/>
<g id="SVGRepo_iconCarrier"> <circle style="fill:#0F7986;" cx="256" cy="256" r="256"/> <path style="fill:#0F7986;" d="M487.084,366.256l-74.376-186.14C404.976,159.02,384.344,144,360.764,144H151.24 C121.296,144,96,168.176,96,198.324v114.628c0,7.852,1.748,15.32,4.808,22.108l63.976,160.14 c28.344,10.816,59.076,16.792,91.216,16.792C357.904,512,445.888,452.444,487.084,366.256z"/> <path style="fill:#21D0C3;" d="M368.764,152H159.24c-29.944,0-57.54,24.176-57.54,54.324v114.632 C101.7,351.1,129.292,376,159.24,376h209.528c29.94,0,52.932-24.9,52.932-55.044V206.324C421.7,176.176,398.708,152,368.764,152z"/> <path style="fill:#FED298;" d="M360.764,144H151.24c-29.944,0-57.54,24.176-57.54,54.324v114.632C93.7,343.1,121.292,368,151.24,368 h209.528c29.94,0,52.932-24.9,52.932-55.044V198.324C413.7,168.176,390.708,144,360.764,144z"/> <g> <rect x="93.7" y="200" style="fill:#FF5B62;" width="320" height="28"/> <polygon style="fill:#FF5B62;" points="246.052,200 96,200 96,228 234.74,228 "/> <rect x="129.7" y="264" style="fill:#FF5B62;" width="60" height="12"/> <rect x="129.7" y="284" style="fill:#FF5B62;" width="116" height="20"/> <polygon style="fill:#FF5B62;" points="212.116,284 132,284 132,304 204.032,304 "/> </g> </g>
</svg>